# xmcd
#
# Track frame offsets:
# 150
# 14952
# 31609
# 48283
# 62941
# 78592
# 96518
# 111665
# 123294
# 138986
#
# Disc length: 2161 seconds
#
#
# Revision: 0
# Processed by: cddbd v1.5.1PL2 Copyright (c) Steve Scherf et al.
# Submitted via: FreeRIP 2.60 
#
DISCID=8e086f0a
DTITLE=Steve Conway - It's About Time
DYEAR=2005
DGENRE=Country
TTITLE0=Wondering Heart
TTITLE1=Right Before My Eyes
TTITLE2=I'll Never Love Like That Again
TTITLE3=Get The Bait In Shape
TTITLE4=The Train Of Life
TTITLE5=It's About Time
TTITLE6=Think About Me Once In A While
TTITLE7=I'll Be Waiting
TTITLE8=Loving You Again
TTITLE9=I'll Never Give Up On You
EXTD=
EXTT0=
EXTT1=
EXTT2=
EXTT3=
EXTT4=
EXTT5=
EXTT6=
EXTT7=
EXTT8=
EXTT9=
PLAYORDER=
